<svg xmlns="http://www.w3.org/2000/svg" width="2108.22" height="1157.681" viewBox="0 0 2108.22 1157.681">
  <g id="Group_535" data-name="Group 535" transform="translate(148.957 -3027.189)">
    <g id="_Group_" data-name="&lt;Group&gt;" transform="translate(-148.551 3197.688)" opacity="0.41">
      <g id="_Group_2" data-name="&lt;Group&gt;" transform="translate(0)">
        <g id="Group_65" data-name="Group 65" transform="translate(1729.224 753.605)">
          <path id="_Path_" data-name="&lt;Path&gt;" d="M783.938,410.69c67.645,0,121.992,52.429,121.992,116.893S851.582,644.267,783.938,644.267c-67.172,0-121.6-52.429-121.6-116.683S716.766,410.69,783.938,410.69Z" transform="translate(-662.34 -410.69)" fill="#0e4a77" opacity="0.35"/>
        </g>
        <g id="Group_66" data-name="Group 66">
          <path id="_Path_2" data-name="&lt;Path&gt;" d="M125.938,123.93c67.671,0,122.018,52.429,122.018,116.893S193.609,357.533,125.938,357.533c-67.145,0-121.6-52.56-121.6-116.709S58.792,123.93,125.938,123.93Z" transform="translate(-4.34 -123.93)" fill="#0e4a77" opacity="0.35"/>
        </g>
        <g id="Group_67" data-name="Group 67" transform="translate(2056.373 558.949)">
          <path id="_Path_3" data-name="&lt;Path&gt;" d="M838.266,527.281a114.055,114.055,0,0,1,0-190.661Z" transform="translate(-786.826 -336.62)" fill="#0e4a77" opacity="0.35"/>
        </g>
        <g id="Group_68" data-name="Group 68" transform="translate(626.785 241.294)">
          <path id="_Path_4" data-name="&lt;Path&gt;" d="M566.842,330.52c24.992,84.1-26.28,171-113.819,194.893S274.03,500.158,249.248,415.773c-25.2-83.728,26.28-170.82,113.766-194.157S542.638,246.556,566.842,330.52Z" transform="translate(-242.843 -215.747)" fill="#0e4a77" opacity="0.29"/>
        </g>
        <g id="Group_69" data-name="Group 69" transform="translate(1386.25 346.474)">
          <path id="_Path_5" data-name="&lt;Path&gt;" d="M855.806,370.536c24.992,84.1-26.28,171-113.792,194.919S563.02,540.2,538.238,455.762c-25.2-83.7,26.28-170.82,113.766-194.13S831.628,286.545,855.806,370.536Z" transform="translate(-531.833 -255.769)" fill="#0e4a77" opacity="0.29"/>
        </g>
        <g id="Group_70" data-name="Group 70" transform="translate(1888.645 346.353)">
          <path id="_Path_6" data-name="&lt;Path&gt;" d="M942.171,562.77q-4.415,1.5-8.988,2.628c-87.617,23.889-179.019-25.255-203.775-109.666-25.2-83.7,26.28-170.82,113.766-194.13a173.212,173.212,0,0,1,99,2.838Z" transform="translate(-723.003 -255.723)" fill="#0e4a77" opacity="0.29"/>
        </g>
        <g id="Group_71" data-name="Group 71" transform="translate(1117.511 1.812)">
          <path id="_Path_7" data-name="&lt;Path&gt;" d="M753.572,239.386c24.966,84.1-26.28,170.978-113.819,194.866S460.76,409,435.978,324.612c-25.2-83.728,26.28-170.82,113.766-194.13S729.368,155.395,753.572,239.386Z" transform="translate(-429.573 -124.619)" fill="#0e4a77" opacity="0.29"/>
        </g>
        <g id="Group_72" data-name="Group 72" transform="translate(439.855 60.197)">
          <path id="_Path_8" data-name="&lt;Path&gt;" d="M495.712,261.612c24.992,84.1-26.28,171-113.819,194.892S202.9,431.249,178.118,346.864c-25.2-83.728,26.28-170.82,113.766-194.157S471.482,177.621,495.712,261.612Z" transform="translate(-171.713 -146.836)" fill="#0e4a77" opacity="0.29"/>
        </g>
        <g id="Group_73" data-name="Group 73" transform="translate(77.638 527.569)">
          <path id="_Path_9" data-name="&lt;Path&gt;" d="M357.856,439.446c25.019,84.1-26.28,170.978-113.792,194.892S65.07,609.057,40.288,524.672c-25.2-83.728,26.28-170.82,113.766-194.13S333.783,355.455,357.856,439.446Z" transform="translate(-33.883 -324.679)" fill="#0e4a77" opacity="0.29"/>
        </g>
        <path id="_Path_10" data-name="&lt;Path&gt;" d="M623.719,327.29c16.74,56.87-17.844,115.947-77.421,131.768-58.815,16.162-120.6-17-137.418-74.215-16.767-56.555,17.581-115.474,77.578-131.61C545.8,237.649,607,270.131,623.719,327.29Z" transform="translate(647.34 80.234)" fill="#0e4a77" opacity="0.24"/>
        <path id="_Path_11" data-name="&lt;Path&gt;" d="M520.719,256.653c16.74,56.87-17.844,115.974-77.421,131.768-58.815,16.162-120.6-16.977-137.418-74.241-16.767-56.555,17.581-115.448,77.579-131.61C442.693,166.96,503.873,199.442,520.719,256.653Z" transform="translate(479.656 -34.824)" fill="#0e4a77" opacity="0.24"/>
        <path id="_Path_12" data-name="&lt;Path&gt;" d="M718.553,365.564c16.74,56.87-17.844,115.974-77.421,131.768-58.815,16.162-120.625-17-137.418-74.215-16.74-56.555,17.581-115.448,77.578-131.61C640.528,275.87,701.707,308.352,718.553,365.564Z" transform="translate(801.745 142.507)" fill="#0e4a77" opacity="0.24"/>
        <path id="_Path_13" data-name="&lt;Path&gt;" d="M342.872,316.68c16.74,56.87-17.844,115.947-77.421,131.768-58.841,16.136-120.6-17-137.418-74.241-16.74-56.555,17.608-115.448,77.579-131.61C264.846,226.96,326.026,259.442,342.872,316.68Z" transform="translate(190.139 62.882)" fill="#0e4a77" opacity="0.24"/>
        <path id="_Path_14" data-name="&lt;Path&gt;" d="M434.01,381.124c16.74,56.87-17.844,115.974-77.421,131.768-58.841,16.162-120.6-16.977-137.418-74.215-16.767-56.528,17.555-115.448,77.579-131.61C356.011,291.43,417.191,323.912,434.01,381.124Z" transform="translate(338.491 167.839)" fill="#0e4a77" opacity="0.24"/>
        <path id="_Path_15" data-name="&lt;Path&gt;" d="M811.913,272.219c16.767,56.87-17.844,115.947-77.421,131.768-58.841,16.162-120.6-17-137.418-74.241-16.74-56.528,17.581-115.448,77.579-131.61C733.914,182.5,795.094,215.008,811.913,272.219Z" transform="translate(953.735 -9.498)" fill="#0e4a77" opacity="0.24"/>
      </g>
    </g>
    <g id="_Group_3" data-name="&lt;Group&gt;" transform="translate(-148.957 3027.189)" opacity="0.41">
      <g id="_Group_4" data-name="&lt;Group&gt;">
        <g id="Group_74" data-name="Group 74" transform="translate(1729.25 165.645)" opacity="0.07">
          <path id="_Path_16" data-name="&lt;Path&gt;" d="M779.608,346.147c67.645,0,121.992-52.429,121.992-116.893S847.252,112.57,779.608,112.57c-67.172,0-121.6,52.429-121.6,116.683S712.436,346.147,779.608,346.147Z" transform="translate(-658.01 -112.57)" fill="#0e4a77" opacity="0.35"/>
        </g>
        <g id="Group_75" data-name="Group 75" transform="translate(0 919.224)" opacity="0.07">
          <path id="_Path_17" data-name="&lt;Path&gt;" d="M121.6,632.923c67.671,0,122.018-52.429,122.018-116.893S189.216,399.32,121.6,399.32C54.452,399.32,0,451.88,0,516.029S54.452,632.923,121.6,632.923Z" transform="translate(0 -399.32)" fill="#0e4a77" opacity="0.35"/>
        </g>
        <g id="Group_76" data-name="Group 76" transform="translate(2056.374 403.295)" opacity="0.07">
          <path id="_Path_18" data-name="&lt;Path&gt;" d="M833.926,203a114.055,114.055,0,0,0,0,190.661Z" transform="translate(-782.486 -203)" fill="#0e4a77" opacity="0.35"/>
        </g>
        <g id="Group_77" data-name="Group 77" transform="translate(626.785 595.803)" opacity="0.07">
          <path id="_Path_19" data-name="&lt;Path&gt;" d="M562.5,477.182c24.992-84.1-26.28-171-113.819-194.893S269.69,307.545,244.908,391.93c-25.2,83.728,26.28,170.82,113.766,194.157S538.3,561.173,562.5,477.182Z" transform="translate(-238.503 -276.253)" fill="#0e4a77" opacity="0.29"/>
        </g>
        <g id="Group_78" data-name="Group 78" transform="translate(1277.215 389.444)" opacity="0.07">
          <path id="_Path_20" data-name="&lt;Path&gt;" d="M809.949,398.694c24.992-84.1-26.28-171-113.792-194.919S517.164,229.031,492.408,313.442c-25.2,83.7,26.28,170.82,113.766,194.13S785.772,482.685,809.949,398.694Z" transform="translate(-486.003 -197.729)" fill="#0e4a77" opacity="0.29"/>
        </g>
        <g id="Group_79" data-name="Group 79" transform="translate(1888.645 490.762)" opacity="0.07">
          <path id="_Path_21" data-name="&lt;Path&gt;" d="M937.831,244.948q-4.415-1.5-8.988-2.628c-87.618-23.888-179.019,25.255-203.775,109.666-25.2,83.7,26.28,170.82,113.766,194.13a173.211,173.211,0,0,0,99-2.838Z" transform="translate(-718.663 -236.283)" fill="#0e4a77" opacity="0.29"/>
        </g>
        <g id="Group_80" data-name="Group 80" transform="translate(778.683)" opacity="0.07">
          <path id="_Path_22" data-name="&lt;Path&gt;" d="M620.3,250.478C645.294,166.514,594.022,79.5,506.483,55.586S327.49,80.841,302.708,165.226c-25.2,83.728,26.28,170.82,113.766,194.13S596.1,334.39,620.3,250.478Z" transform="translate(-296.303 -49.539)" fill="#0e4a77" opacity="0.29"/>
        </g>
        <g id="Group_81" data-name="Group 81" transform="translate(1117.511 835.345)" opacity="0.07">
          <path id="_Path_23" data-name="&lt;Path&gt;" d="M749.232,568.306c24.966-84.1-26.28-170.978-113.819-194.866S456.42,398.695,431.638,483.08c-25.2,83.728,26.28,170.82,113.766,194.13S725.028,652.3,749.232,568.306Z" transform="translate(-425.233 -367.403)" fill="#0e4a77" opacity="0.29"/>
        </g>
        <g id="Group_82" data-name="Group 82" transform="translate(439.829 776.925)" opacity="0.07">
          <path id="_Path_24" data-name="&lt;Path&gt;" d="M491.362,546.1c24.992-84.1-26.28-171-113.819-194.893S198.55,376.465,173.768,460.85c-25.2,83.728,26.28,170.82,113.766,194.157S467.184,630.093,491.362,546.1Z" transform="translate(-167.363 -345.173)" fill="#0e4a77" opacity="0.29"/>
        </g>
        <g id="Group_83" data-name="Group 83" transform="translate(77.69 309.552)" opacity="0.07">
          <path id="_Path_25" data-name="&lt;Path&gt;" d="M353.509,368.268c25.019-84.1-26.28-170.978-113.792-194.892S60.7,198.631,35.968,283.016c-25.2,83.728,26.28,170.82,113.766,194.13S329.305,452.259,353.509,368.268Z" transform="translate(-29.563 -167.329)" fill="#0e4a77" opacity="0.29"/>
        </g>
        <path id="_Path_26" data-name="&lt;Path&gt;" d="M516.369,487.963c16.74-56.87-17.844-115.974-77.421-131.768-58.815-16.162-120.6,16.977-137.418,74.241-16.767,56.555,17.581,115.448,77.578,131.61C438.448,577.657,499.549,545.175,516.369,487.963Z" transform="translate(483.98 443.034)" fill="#0e4a77" opacity="0.24"/>
        <path id="_Path_27" data-name="&lt;Path&gt;" d="M338.532,427.936c16.74-56.87-17.844-115.947-77.421-131.768-58.841-16.136-120.6,17-137.418,74.241-16.74,56.555,17.608,115.448,77.579,131.61C260.506,517.656,321.686,485.174,338.532,427.936Z" transform="translate(194.479 345.329)" fill="#0e4a77" opacity="0.24"/>
        <path id="_Path_28" data-name="&lt;Path&gt;" d="M429.72,363.483c16.74-56.87-17.844-115.974-77.421-131.768-58.841-16.162-120.6,16.977-137.418,74.215-16.767,56.528,17.555,115.448,77.579,131.61C351.589,453.177,412.769,420.695,429.72,363.483Z" transform="translate(342.912 240.381)" fill="#0e4a77" opacity="0.24"/>
        <path id="_Path_29" data-name="&lt;Path&gt;" d="M807.573,472.4c16.767-56.87-17.844-115.947-77.421-131.768-58.841-16.162-120.6,17-137.418,74.241-16.74,56.528,17.581,115.448,77.579,131.61C729.574,562.122,790.754,529.587,807.573,472.4Z" transform="translate(958.075 417.704)" fill="#0e4a77" opacity="0.24"/>
      </g>
    </g>
  </g>
</svg>
