<svg xmlns="http://www.w3.org/2000/svg" width="2108.22" height="1157.681" viewBox="0 0 2108.22 1157.681">
  <g id="Group_530" data-name="Group 530" transform="translate(0 0)">
    <g id="_Group_" data-name="&lt;Group&gt;" transform="translate(0.406 170.499)" opacity="0.41">
      <g id="_Group_2" data-name="&lt;Group&gt;" transform="translate(0)">
        <g id="Group_65" data-name="Group 65" transform="translate(1729.224 753.605)">
          <path id="_Path_" data-name="&lt;Path&gt;" d="M121.6,0c67.645,0,121.992,52.429,121.992,116.893S189.242,233.577,121.6,233.577C54.426,233.577,0,181.148,0,116.893S54.426,0,121.6,0Z" transform="translate(0 0)" fill="#0e4a77" opacity="0.35"/>
        </g>
        <g id="Group_66" data-name="Group 66" transform="translate(0 0)">
          <path id="_Path_2" data-name="&lt;Path&gt;" d="M121.6,0c67.671,0,122.018,52.429,122.018,116.893S189.269,233.6,121.6,233.6C54.452,233.6,0,181.043,0,116.893S54.452,0,121.6,0Z" transform="translate(0 0)" fill="#0e4a77" opacity="0.35"/>
        </g>
        <g id="Group_67" data-name="Group 67" transform="translate(2056.374 558.949)">
          <path id="_Path_3" data-name="&lt;Path&gt;" d="M51.44,190.662A114.055,114.055,0,0,1,51.44,0Z" transform="translate(0 0)" fill="#0e4a77" opacity="0.35"/>
        </g>
        <g id="Group_68" data-name="Group 68" transform="translate(626.785 241.294)">
          <path id="_Path_4" data-name="&lt;Path&gt;" d="M324,114.774c24.992,84.1-26.28,171-113.819,194.893S31.188,284.411,6.406,200.026C-18.8,116.3,32.686,29.206,120.172,5.869S299.8,30.809,324,114.774Z" fill="#0e4a77" opacity="0.29"/>
        </g>
        <g id="Group_69" data-name="Group 69" transform="translate(1386.251 346.474)">
          <path id="_Path_5" data-name="&lt;Path&gt;" d="M323.973,114.766c24.992,84.1-26.28,171-113.792,194.919S31.188,284.43,6.406,199.992c-25.2-83.7,26.28-170.82,113.766-194.13S299.8,30.776,323.973,114.766Z" fill="#0e4a77" opacity="0.29"/>
        </g>
        <g id="Group_70" data-name="Group 70" transform="translate(1888.646 346.353)">
          <path id="_Path_6" data-name="&lt;Path&gt;" d="M219.168,307.047q-4.415,1.5-8.988,2.628C122.563,333.564,31.161,284.42,6.406,200.009c-25.2-83.7,26.28-170.82,113.766-194.13a173.212,173.212,0,0,1,99,2.838Z" transform="translate(0 0)" fill="#0e4a77" opacity="0.29"/>
        </g>
        <g id="Group_71" data-name="Group 71" transform="translate(1117.511 1.812)">
          <path id="_Path_7" data-name="&lt;Path&gt;" d="M324,114.766c24.966,84.1-26.28,170.978-113.819,194.866S31.188,284.378,6.406,199.992c-25.2-83.728,26.28-170.82,113.766-194.13S299.8,30.775,324,114.766Z" fill="#0e4a77" opacity="0.29"/>
        </g>
        <g id="Group_72" data-name="Group 72" transform="translate(439.855 60.197)">
          <path id="_Path_8" data-name="&lt;Path&gt;" d="M324,114.776c24.992,84.1-26.28,171-113.819,194.892S31.188,284.413,6.406,200.028C-18.8,116.3,32.686,29.208,120.172,5.871S299.769,30.785,324,114.776Z" transform="translate(0 0)" fill="#0e4a77" opacity="0.29"/>
        </g>
        <g id="Group_73" data-name="Group 73" transform="translate(77.638 527.57)">
          <path id="_Path_9" data-name="&lt;Path&gt;" d="M323.973,114.766c25.019,84.1-26.28,170.978-113.792,194.892S31.188,284.378,6.406,199.992c-25.2-83.728,26.28-170.82,113.766-194.13S299.9,30.775,323.973,114.766Z" transform="translate(0 0)" fill="#0e4a77" opacity="0.29"/>
        </g>
        <path id="_Path_10" data-name="&lt;Path&gt;" d="M219.084,77.953c16.74,56.87-17.844,115.947-77.421,131.768-58.815,16.162-120.6-17-137.418-74.215C-12.522,78.951,21.826,20.032,81.823,3.9,141.164-11.689,202.37,20.794,219.084,77.953Z" transform="translate(1051.975 329.571)" fill="#0e4a77" opacity="0.24"/>
        <path id="_Path_11" data-name="&lt;Path&gt;" d="M219.084,77.99c16.74,56.87-17.844,115.974-77.421,131.768C82.848,225.92,21.064,192.781,4.245,135.517-12.522,78.962,21.826,20.069,81.823,3.906,141.058-11.7,202.238,20.778,219.084,77.99Z" transform="translate(781.291 143.84)" fill="#0e4a77" opacity="0.24"/>
        <path id="_Path_12" data-name="&lt;Path&gt;" d="M219.075,77.975c16.74,56.87-17.844,115.974-77.421,131.768C82.839,225.9,21.028,192.74,4.235,135.528-12.5,78.974,21.817,20.08,81.814,3.918,141.049-11.719,202.229,20.763,219.075,77.975Z" transform="translate(1301.224 430.097)" fill="#0e4a77" opacity="0.24"/>
        <path id="_Path_13" data-name="&lt;Path&gt;" d="M219.073,78c16.74,56.87-17.844,115.947-77.421,131.768-58.841,16.136-120.6-17-137.418-74.241C-12.507,78.973,21.841,20.08,81.812,3.918,141.047-11.719,202.227,20.763,219.073,78Z" transform="translate(313.938 301.561)" fill="#0e4a77" opacity="0.24"/>
        <path id="_Path_14" data-name="&lt;Path&gt;" d="M219.086,77.975c16.74,56.87-17.844,115.974-77.421,131.768C82.824,225.9,21.066,192.766,4.247,135.528-12.52,79,21.8,20.08,81.825,3.918,141.087-11.719,202.266,20.763,219.086,77.975Z" transform="translate(553.415 470.988)" fill="#0e4a77" opacity="0.24"/>
        <path id="_Path_15" data-name="&lt;Path&gt;" d="M219.074,78c16.767,56.87-17.844,115.947-77.421,131.768-58.841,16.162-120.6-17-137.418-74.241C-12.5,79,21.817,20.078,81.814,3.916,141.075-11.721,202.255,20.788,219.074,78Z" transform="translate(1546.574 184.722)" fill="#0e4a77" opacity="0.24"/>
      </g>
    </g>
    <g id="_Group_3" data-name="&lt;Group&gt;" transform="translate(0 0)" opacity="0.41">
      <g id="_Group_4" data-name="&lt;Group&gt;">
        <g id="Group_74" data-name="Group 74" transform="translate(1729.25 165.645)" opacity="0.07">
          <path id="_Path_16" data-name="&lt;Path&gt;" d="M121.6,233.577c67.645,0,121.992-52.429,121.992-116.893S189.242,0,121.6,0C54.426,0,0,52.429,0,116.683S54.426,233.577,121.6,233.577Z" transform="translate(0 0)" fill="#0e4a77" opacity="0.35"/>
        </g>
        <g id="Group_75" data-name="Group 75" transform="translate(0 919.224)" opacity="0.07">
          <path id="_Path_17" data-name="&lt;Path&gt;" d="M121.6,233.6c67.671,0,122.018-52.429,122.018-116.893S189.216,0,121.6,0C54.452,0,0,52.56,0,116.709S54.452,233.6,121.6,233.6Z" fill="#0e4a77" opacity="0.35"/>
        </g>
        <g id="Group_76" data-name="Group 76" transform="translate(2056.374 403.295)" opacity="0.07">
          <path id="_Path_18" data-name="&lt;Path&gt;" d="M51.44,0a114.055,114.055,0,0,0,0,190.661Z" transform="translate(0 0)" fill="#0e4a77" opacity="0.35"/>
        </g>
        <g id="Group_77" data-name="Group 77" transform="translate(626.785 595.803)" opacity="0.07">
          <path id="_Path_19" data-name="&lt;Path&gt;" d="M324,200.93c24.992-84.1-26.28-171-113.819-194.892S31.188,31.292,6.406,115.677c-25.2,83.728,26.28,170.82,113.766,194.157S299.8,284.921,324,200.93Z" transform="translate(0 0)" fill="#0e4a77" opacity="0.29"/>
        </g>
        <g id="Group_78" data-name="Group 78" transform="translate(1277.215 389.444)" opacity="0.07">
          <path id="_Path_20" data-name="&lt;Path&gt;" d="M323.947,200.965c24.992-84.1-26.28-171-113.792-194.919S31.161,31.3,6.406,115.713c-25.2,83.7,26.28,170.82,113.766,194.13S299.769,284.956,323.947,200.965Z" fill="#0e4a77" opacity="0.29"/>
        </g>
        <g id="Group_79" data-name="Group 79" transform="translate(1888.645 490.762)" opacity="0.07">
          <path id="_Path_21" data-name="&lt;Path&gt;" d="M219.168,8.665q-4.415-1.5-8.988-2.628C122.563-17.851,31.161,31.292,6.406,115.7c-25.2,83.7,26.28,170.82,113.766,194.13a173.211,173.211,0,0,0,99-2.838Z" fill="#0e4a77" opacity="0.29"/>
        </g>
        <g id="Group_80" data-name="Group 80" transform="translate(778.683 0)" opacity="0.07">
          <path id="_Path_22" data-name="&lt;Path&gt;" d="M324,200.939c24.992-83.965-26.28-170.978-113.819-194.892S31.188,31.3,6.406,115.687c-25.2,83.728,26.28,170.82,113.766,194.13S299.8,284.851,324,200.939Z" fill="#0e4a77" opacity="0.29"/>
        </g>
        <g id="Group_81" data-name="Group 81" transform="translate(1117.511 835.346)" opacity="0.07">
          <path id="_Path_23" data-name="&lt;Path&gt;" d="M324,200.9c24.966-84.1-26.28-170.978-113.819-194.866S31.188,31.292,6.406,115.677c-25.2,83.728,26.28,170.82,113.766,194.13S299.8,284.894,324,200.9Z" transform="translate(0 0)" fill="#0e4a77" opacity="0.29"/>
        </g>
        <g id="Group_82" data-name="Group 82" transform="translate(439.829 776.925)" opacity="0.07">
          <path id="_Path_24" data-name="&lt;Path&gt;" d="M324,200.93c24.992-84.1-26.28-171-113.819-194.893S31.188,31.292,6.406,115.677c-25.2,83.728,26.28,170.82,113.766,194.157S299.822,284.921,324,200.93Z" transform="translate(0 0)" fill="#0e4a77" opacity="0.29"/>
        </g>
        <g id="Group_83" data-name="Group 83" transform="translate(77.69 309.552)" opacity="0.07">
          <path id="_Path_25" data-name="&lt;Path&gt;" d="M323.947,200.939c25.019-84.1-26.28-170.978-113.792-194.893S31.135,31.3,6.406,115.687c-25.2,83.728,26.28,170.82,113.766,194.13S299.743,284.93,323.947,200.939Z" transform="translate(0 0)" fill="#0e4a77" opacity="0.29"/>
        </g>
        <path id="_Path_26" data-name="&lt;Path&gt;" d="M219.084,135.86C235.824,78.99,201.24,19.887,141.663,4.092,82.848-12.07,21.064,21.069,4.245,78.333c-16.767,56.555,17.581,115.448,77.578,131.61C141.164,225.554,202.265,193.072,219.084,135.86Z" transform="translate(781.265 795.137)" fill="#0e4a77" opacity="0.24"/>
        <path id="_Path_27" data-name="&lt;Path&gt;" d="M219.073,135.849C235.813,78.979,201.228,19.9,141.652,4.081c-58.841-16.136-120.6,17-137.418,74.241-16.74,56.555,17.608,115.448,77.579,131.61C141.047,225.569,202.227,193.087,219.073,135.849Z" transform="translate(313.938 637.416)" fill="#0e4a77" opacity="0.24"/>
        <path id="_Path_28" data-name="&lt;Path&gt;" d="M219.086,135.86c16.74-56.87-17.844-115.974-77.421-131.768C82.824-12.07,21.066,21.069,4.247,78.307-12.52,134.835,21.8,193.755,81.825,209.917,140.955,225.554,202.135,193.072,219.086,135.86Z" transform="translate(553.546 468.004)" fill="#0e4a77" opacity="0.24"/>
        <path id="_Path_29" data-name="&lt;Path&gt;" d="M219.074,135.858C235.841,78.988,201.23,19.911,141.654,4.09c-58.841-16.162-120.6,17-137.418,74.241C-12.5,134.86,21.817,193.779,81.814,209.942,141.075,225.578,202.255,193.044,219.074,135.858Z" transform="translate(1546.574 754.247)" fill="#0e4a77" opacity="0.24"/>
      </g>
    </g>
  </g>
</svg>
