<svg xmlns="http://www.w3.org/2000/svg" width="2108.219" height="1157.681" viewBox="0 0 2108.219 1157.681">
  <g id="Group_528" data-name="Group 528" transform="translate(0 -693.161)">
    <g id="_Group_" data-name="&lt;Group&gt;" transform="translate(0.406 693.161)" opacity="0.41">
      <g id="_Group_2" data-name="&lt;Group&gt;" transform="translate(0)">
        <g id="Group_65" data-name="Group 65" transform="translate(1729.224)">
          <path id="_Path_" data-name="&lt;Path&gt;" d="M783.938,644.267c67.645,0,121.992-52.429,121.992-116.893S851.582,410.69,783.938,410.69c-67.172,0-121.6,52.429-121.6,116.683S716.766,644.267,783.938,644.267Z" transform="translate(-662.34 -410.69)" fill="#0e4a77" opacity="0.35"/>
        </g>
        <g id="Group_66" data-name="Group 66" transform="translate(0 753.579)">
          <path id="_Path_2" data-name="&lt;Path&gt;" d="M125.938,357.533c67.671,0,122.018-52.429,122.018-116.893S193.609,123.93,125.938,123.93c-67.145,0-121.6,52.56-121.6,116.709S58.792,357.533,125.938,357.533Z" transform="translate(-4.34 -123.93)" fill="#0e4a77" opacity="0.35"/>
        </g>
        <g id="Group_67" data-name="Group 67" transform="translate(2056.373 237.571)">
          <path id="_Path_3" data-name="&lt;Path&gt;" d="M838.266,336.62a114.055,114.055,0,0,0,0,190.661Z" transform="translate(-786.826 -336.62)" fill="#0e4a77" opacity="0.35"/>
        </g>
        <g id="Group_68" data-name="Group 68" transform="translate(626.785 430.185)">
          <path id="_Path_4" data-name="&lt;Path&gt;" d="M566.842,416.676c24.992-84.1-26.28-171-113.819-194.893S274.03,247.039,249.248,331.424c-25.2,83.728,26.28,170.82,113.766,194.157S542.638,500.641,566.842,416.676Z" transform="translate(-242.843 -215.747)" fill="#0e4a77" opacity="0.29"/>
        </g>
        <g id="Group_69" data-name="Group 69" transform="translate(1386.25 324.977)">
          <path id="_Path_5" data-name="&lt;Path&gt;" d="M855.806,456.734c24.992-84.1-26.28-171-113.792-194.919S563.02,287.071,538.238,371.508c-25.2,83.7,26.28,170.82,113.766,194.13S831.628,540.725,855.806,456.734Z" transform="translate(-531.833 -255.769)" fill="#0e4a77" opacity="0.29"/>
        </g>
        <g id="Group_70" data-name="Group 70" transform="translate(1888.645 325.117)">
          <path id="_Path_6" data-name="&lt;Path&gt;" d="M942.171,264.388q-4.415-1.5-8.988-2.628c-87.617-23.889-179.019,25.255-203.775,109.666-25.2,83.7,26.28,170.82,113.766,194.13a173.212,173.212,0,0,0,99-2.838Z" transform="translate(-723.003 -255.723)" fill="#0e4a77" opacity="0.29"/>
        </g>
        <g id="Group_71" data-name="Group 71" transform="translate(1117.511 669.7)">
          <path id="_Path_7" data-name="&lt;Path&gt;" d="M753.572,325.523c24.966-84.1-26.28-170.978-113.819-194.866S460.76,155.912,435.978,240.3c-25.2,83.728,26.28,170.82,113.766,194.13S729.368,409.514,753.572,325.523Z" transform="translate(-429.573 -124.619)" fill="#0e4a77" opacity="0.29"/>
        </g>
        <g id="Group_72" data-name="Group 72" transform="translate(439.855 611.28)">
          <path id="_Path_8" data-name="&lt;Path&gt;" d="M495.712,347.766c24.992-84.1-26.28-171-113.819-194.892S202.9,178.128,178.118,262.513c-25.2,83.728,26.28,170.82,113.766,194.157S471.482,431.756,495.712,347.766Z" transform="translate(-171.713 -146.836)" fill="#0e4a77" opacity="0.29"/>
        </g>
        <g id="Group_73" data-name="Group 73" transform="translate(77.638 143.909)">
          <path id="_Path_9" data-name="&lt;Path&gt;" d="M357.856,525.616c25.019-84.1-26.28-170.978-113.792-194.892S65.07,356.005,40.288,440.39c-25.2,83.728,26.28,170.82,113.766,194.13S333.783,609.607,357.856,525.616Z" transform="translate(-33.883 -324.679)" fill="#0e4a77" opacity="0.29"/>
        </g>
        <path id="_Path_10" data-name="&lt;Path&gt;" d="M623.719,385.2c16.74-56.87-17.844-115.947-77.421-131.768-58.815-16.162-120.6,17-137.418,74.215-16.767,56.555,17.581,115.474,77.578,131.61C545.8,474.837,607,442.355,623.719,385.2Z" transform="translate(647.34 194.462)" fill="#0e4a77" opacity="0.24"/>
        <path id="_Path_11" data-name="&lt;Path&gt;" d="M520.719,314.524c16.74-56.87-17.844-115.974-77.421-131.768C384.483,166.594,322.7,199.733,305.879,257c-16.767,56.555,17.581,115.448,77.579,131.61C442.693,404.217,503.873,371.735,520.719,314.524Z" transform="translate(479.656 450.829)" fill="#0e4a77" opacity="0.24"/>
        <path id="_Path_12" data-name="&lt;Path&gt;" d="M718.553,423.448c16.74-56.87-17.844-115.974-77.421-131.768-58.815-16.162-120.625,17-137.418,74.215-16.74,56.555,17.581,115.448,77.578,131.61C640.528,513.141,701.707,480.659,718.553,423.448Z" transform="translate(801.745 55.663)" fill="#0e4a77" opacity="0.24"/>
        <path id="_Path_13" data-name="&lt;Path&gt;" d="M342.872,374.528c16.74-56.87-17.844-115.947-77.421-131.768-58.841-16.136-120.6,17-137.418,74.241-16.74,56.555,17.608,115.448,77.579,131.61C264.846,464.248,326.026,431.766,342.872,374.528Z" transform="translate(190.139 233.092)" fill="#0e4a77" opacity="0.24"/>
        <path id="_Path_14" data-name="&lt;Path&gt;" d="M434.01,439.01c16.74-56.87-17.844-115.974-77.421-131.768-58.841-16.162-120.6,16.977-137.418,74.215C202.4,437.985,236.726,496.9,296.749,513.067,356.011,528.7,417.191,496.221,434.01,439.01Z" transform="translate(338.491 -0.791)" fill="#0e4a77" opacity="0.24"/>
        <path id="_Path_15" data-name="&lt;Path&gt;" d="M811.913,330.078c16.767-56.87-17.844-115.947-77.421-131.768-58.841-16.162-120.6,17-137.418,74.241C580.333,329.08,614.655,388,674.652,404.162,733.914,419.8,795.094,387.29,811.913,330.078Z" transform="translate(953.735 394.383)" fill="#0e4a77" opacity="0.24"/>
      </g>
    </g>
    <g id="_Group_3" data-name="&lt;Group&gt;" transform="translate(0 698.016)" opacity="0.41">
      <g id="_Group_4" data-name="&lt;Group&gt;">
        <g id="Group_74" data-name="Group 74" transform="translate(1729.25 753.605)" opacity="0.07">
          <path id="_Path_16" data-name="&lt;Path&gt;" d="M779.608,112.57C847.252,112.57,901.6,165,901.6,229.463S847.252,346.147,779.608,346.147c-67.172,0-121.6-52.429-121.6-116.683S712.436,112.57,779.608,112.57Z" transform="translate(-658.01 -112.57)" fill="#0e4a77" opacity="0.35"/>
        </g>
        <g id="Group_75" data-name="Group 75" opacity="0.07">
          <path id="_Path_17" data-name="&lt;Path&gt;" d="M121.6,399.32c67.671,0,122.018,52.429,122.018,116.893S189.216,632.923,121.6,632.923C54.452,632.923,0,580.363,0,516.213S54.452,399.32,121.6,399.32Z" transform="translate(0 -399.32)" fill="#0e4a77" opacity="0.35"/>
        </g>
        <g id="Group_76" data-name="Group 76" transform="translate(2056.374 558.871)" opacity="0.07">
          <path id="_Path_18" data-name="&lt;Path&gt;" d="M833.926,393.661a114.055,114.055,0,0,1,0-190.661Z" transform="translate(-782.486 -203)" fill="#0e4a77" opacity="0.35"/>
        </g>
        <g id="Group_77" data-name="Group 77" transform="translate(626.785 241.318)" opacity="0.07">
          <path id="_Path_19" data-name="&lt;Path&gt;" d="M562.5,391.028c24.992,84.1-26.28,171-113.819,194.892S269.69,560.666,244.908,476.281c-25.2-83.728,26.28-170.82,113.766-194.157S538.3,307.037,562.5,391.028Z" transform="translate(-238.503 -276.253)" fill="#0e4a77" opacity="0.29"/>
        </g>
        <g id="Group_78" data-name="Group 78" transform="translate(1277.215 447.676)" opacity="0.07">
          <path id="_Path_20" data-name="&lt;Path&gt;" d="M809.949,312.471c24.992,84.1-26.28,171-113.792,194.919S517.164,482.135,492.408,397.724c-25.2-83.7,26.28-170.82,113.766-194.13S785.772,228.48,809.949,312.471Z" transform="translate(-486.003 -197.729)" fill="#0e4a77" opacity="0.29"/>
        </g>
        <g id="Group_79" data-name="Group 79" transform="translate(1888.645 346.352)" opacity="0.07">
          <path id="_Path_21" data-name="&lt;Path&gt;" d="M937.831,543.33q-4.415,1.5-8.988,2.628C841.226,569.846,749.824,520.7,725.068,436.292c-25.2-83.7,26.28-170.82,113.766-194.13a173.211,173.211,0,0,1,99,2.838Z" transform="translate(-718.663 -236.283)" fill="#0e4a77" opacity="0.29"/>
        </g>
        <g id="Group_80" data-name="Group 80" transform="translate(778.683 837.151)" opacity="0.07">
          <path id="_Path_22" data-name="&lt;Path&gt;" d="M620.3,164.276c24.992,83.965-26.28,170.978-113.819,194.892S327.49,333.913,302.708,249.528c-25.2-83.728,26.28-170.82,113.766-194.13S596.1,80.364,620.3,164.276Z" transform="translate(-296.303 -49.539)" fill="#0e4a77" opacity="0.29"/>
        </g>
        <g id="Group_81" data-name="Group 81" transform="translate(1117.511 1.812)" opacity="0.07">
          <path id="_Path_23" data-name="&lt;Path&gt;" d="M749.232,482.169c24.966,84.1-26.28,170.978-113.819,194.866S456.42,651.78,431.638,567.4c-25.2-83.728,26.28-170.82,113.766-194.13S725.028,398.178,749.232,482.169Z" transform="translate(-425.233 -367.403)" fill="#0e4a77" opacity="0.29"/>
        </g>
        <g id="Group_82" data-name="Group 82" transform="translate(439.829 60.197)" opacity="0.07">
          <path id="_Path_24" data-name="&lt;Path&gt;" d="M491.362,459.948c24.992,84.1-26.28,171-113.819,194.893S198.55,629.586,173.768,545.2c-25.2-83.728,26.28-170.82,113.766-194.157S467.184,375.957,491.362,459.948Z" transform="translate(-167.363 -345.173)" fill="#0e4a77" opacity="0.29"/>
        </g>
        <g id="Group_83" data-name="Group 83" transform="translate(77.69 527.594)" opacity="0.07">
          <path id="_Path_25" data-name="&lt;Path&gt;" d="M353.509,282.071c25.019,84.1-26.28,170.978-113.792,194.892S60.7,451.709,35.968,367.324c-25.2-83.728,26.28-170.82,113.766-194.13S329.305,198.08,353.509,282.071Z" transform="translate(-29.563 -167.329)" fill="#0e4a77" opacity="0.29"/>
        </g>
        <path id="_Path_26" data-name="&lt;Path&gt;" d="M516.369,430.093c16.74,56.87-17.844,115.974-77.421,131.768-58.815,16.162-120.6-16.977-137.418-74.241-16.767-56.555,17.581-115.448,77.578-131.61C438.448,340.4,499.549,372.881,516.369,430.093Z" transform="translate(483.98 -208.263)" fill="#0e4a77" opacity="0.24"/>
        <path id="_Path_27" data-name="&lt;Path&gt;" d="M338.532,370.088c16.74,56.87-17.844,115.947-77.421,131.768-58.841,16.136-120.6-17-137.418-74.241C106.952,371.06,141.3,312.167,201.271,296,260.506,280.368,321.686,312.85,338.532,370.088Z" transform="translate(194.479 9.474)" fill="#0e4a77" opacity="0.24"/>
        <path id="_Path_28" data-name="&lt;Path&gt;" d="M429.72,305.6c16.74,56.87-17.844,115.974-77.421,131.768-58.841,16.162-120.6-16.977-137.418-74.215-16.767-56.528,17.555-115.448,77.579-131.61C351.589,215.9,412.769,248.386,429.72,305.6Z" transform="translate(342.912 243.365)" fill="#0e4a77" opacity="0.24"/>
        <path id="_Path_29" data-name="&lt;Path&gt;" d="M807.573,414.541c16.767,56.87-17.844,115.947-77.421,131.768-58.841,16.162-120.6-17-137.418-74.241-16.74-56.528,17.581-115.448,77.579-131.61C729.574,324.821,790.754,357.355,807.573,414.541Z" transform="translate(958.075 -151.82)" fill="#0e4a77" opacity="0.24"/>
      </g>
    </g>
  </g>
</svg>
