<svg id="mechanic" xmlns="http://www.w3.org/2000/svg" width="173.966" height="197.934" viewBox="0 0 173.966 197.934">
  <path id="Path_623" data-name="Path 623" d="M206.689,323.341a40.708,40.708,0,0,1-60.888-.464L148.121,302h.58l3.479-13.8a5.729,5.729,0,0,1,6.959-4.292H193.7a5.816,5.816,0,0,1,6.959,4.292l3.479,13.8h.58Zm0,0" transform="translate(-89.436 -174.041)" fill="#ffbfab"/>
  <path id="Path_624" data-name="Path 624" d="M253.3,302.06,255.27,323.4A40.875,40.875,0,0,1,225,336.854V283.968h17.28a5.816,5.816,0,0,1,6.959,4.292l3.479,13.8Zm0,0" transform="translate(-138.017 -174.099)" fill="#f89580"/>
  <path id="Path_625" data-name="Path 625" d="M173.966,371.592v23.582a5.742,5.742,0,0,1-5.8,5.8H5.8a5.742,5.742,0,0,1-5.8-5.8V371.592A40.637,40.637,0,0,1,40.592,331H58.685a29.921,29.921,0,0,0,6.379,13.221,28.82,28.82,0,0,0,21.919,9.509,28.939,28.939,0,0,0,21.572-9.162A29.388,29.388,0,0,0,115.281,331h18.093A40.637,40.637,0,0,1,173.966,371.592Zm0,0" transform="translate(0 -203.039)" fill="#fff"/>
  <path id="Path_626" data-name="Path 626" d="M311.983,371.592v23.582a5.742,5.742,0,0,1-5.8,5.8H225V353.732a28.944,28.944,0,0,0,21.572-9.162A29.4,29.4,0,0,0,253.3,331h18.093a40.637,40.637,0,0,1,40.592,40.592Zm0,0" transform="translate(-138.017 -203.039)" fill="#fff"/>
  <path id="Path_627" data-name="Path 627" d="M317.4,432.6H305.8a5.8,5.8,0,1,1,0-11.6h11.6a5.8,5.8,0,1,1,0,11.6Zm0,0" transform="translate(-184.023 -258.245)" fill="#c6e2e7"/>
  <path id="Path_628" data-name="Path 628" d="M187.537,166.391a46.8,46.8,0,0,1-90.926-1.044C89.188,134.381,90.464,123.943,90,120H194.38c-.233,1.392,1.856,13.568-6.842,46.391Zm0,0" transform="translate(-55.207 -73.609)" fill="#ffcebf"/>
  <path id="Path_629" data-name="Path 629" d="M270.347,166.391A47.092,47.092,0,0,1,225,201.571V120h52.19c-.233,1.392,1.856,13.568-6.842,46.391Zm0,0" transform="translate(-138.017 -73.609)" fill="#ffa78f"/>
  <path id="Path_630" data-name="Path 630" d="M194.379,101.6a23.363,23.363,0,0,1-23.2,23.2H113.2A23.264,23.264,0,0,1,90,101.6L142.19,90Zm0,0" transform="translate(-55.207 -55.207)" fill="#eedc41"/>
  <path id="Path_631" data-name="Path 631" d="M277.19,101.6a23.363,23.363,0,0,1-23.2,23.2H225V90Zm0,0" transform="translate(-138.017 -55.207)" fill="#ff9a00"/>
  <path id="Path_632" data-name="Path 632" d="M194.379,46.391H90A46.378,46.378,0,0,1,136.391,0h11.6A46.378,46.378,0,0,1,194.379,46.391Zm0,0" transform="translate(-55.207)" fill="#feec4e"/>
  <path id="Path_633" data-name="Path 633" d="M277.19,46.391H225V0h5.8A46.378,46.378,0,0,1,277.19,46.391Zm0,0" transform="translate(-138.017)" fill="#ff9a00"/>
  <path id="Path_634" data-name="Path 634" d="M214.793,65.8a5.742,5.742,0,0,1-5.8,5.8H185.8a5.8,5.8,0,1,1,0-11.6h23.2A5.741,5.741,0,0,1,214.793,65.8Zm0,0" transform="translate(-110.414 -36.805)" fill="#deecf1"/>
  <path id="Path_635" data-name="Path 635" d="M236.6,71.6H225V60h11.6a5.8,5.8,0,1,1,0,11.6Zm0,0" transform="translate(-138.017 -36.805)" fill="#c6e2e7"/>
</svg>
