<svg xmlns="http://www.w3.org/2000/svg" width="222.153" height="197.543" viewBox="0 0 222.153 197.543">
  <g id="windscreen" transform="translate(0 -28.359)">
    <path id="Path_614" data-name="Path 614" d="M194.645,167H27.508L0,61.094V49.237l4.231-1.58a305.432,305.432,0,0,1,213.69,0l4.231,1.58V61.094Z" transform="translate(0 0)" fill="#fff"/>
    <path id="Path_615" data-name="Path 615" d="M362.845,47.656A305.375,305.375,0,0,0,256,28.359V167h83.569L367.076,61.094V49.237Z" transform="translate(-144.924 0)" fill="#efefef"/>
    <g id="Group_522" data-name="Group 522" transform="translate(50.43 98.873)">
      <path id="Path_616" data-name="Path 616" d="M230.254,314.111l-7.8-10.424c8.389-6.274,13.009-14.439,13.009-22.991s-4.62-16.717-13.009-22.991c-11.756-8.792-18.231-20.659-18.231-33.415s6.475-24.623,18.231-33.415l7.8,10.424c-8.389,6.274-13.009,14.44-13.009,22.991s4.62,16.717,13.009,22.991c11.756,8.792,18.231,20.659,18.231,33.415S242.01,305.318,230.254,314.111Z" transform="translate(-166.044 -190.875)" fill="#feec4e"/>
      <path id="Path_617" data-name="Path 617" d="M142.254,314.111l-7.8-10.424c8.389-6.274,13.009-14.439,13.009-22.991s-4.62-16.717-13.009-22.991c-11.756-8.792-18.231-20.659-18.231-33.415s6.475-24.623,18.231-33.415l7.8,10.424c-8.389,6.274-13.009,14.44-13.009,22.991s4.62,16.717,13.009,22.991c11.756,8.792,18.231,20.659,18.231,33.415S154.01,305.318,142.254,314.111Z" transform="translate(-116.227 -190.875)" fill="#feec4e"/>
    </g>
    <path id="Path_618" data-name="Path 618" d="M318.254,314.111l-7.8-10.424c8.389-6.274,13.009-14.439,13.009-22.991s-4.62-16.717-13.009-22.991c-11.756-8.792-18.231-20.659-18.231-33.415s6.475-24.623,18.231-33.415l7.8,10.424c-8.389,6.274-13.009,14.44-13.009,22.991s4.62,16.717,13.009,22.991c11.756,8.792,18.231,20.659,18.231,33.415S330.01,305.318,318.254,314.111Z" transform="translate(-165.432 -92.002)" fill="#ff9a00"/>
    <g id="Group_523" data-name="Group 523" transform="translate(88.613 102.667)">
      <path id="Path_619" data-name="Path 619" d="M217.244,233.032c0-7.251,3.323-14.223,9.447-20v-7.754l-4.233-5.66c-11.756,8.792-18.231,20.659-18.231,33.415s6.475,24.623,18.231,33.415a40.188,40.188,0,0,1,4.233,3.638V253.033C220.567,247.255,217.244,240.283,217.244,233.032Z" transform="translate(-204.227 -199.617)" fill="#feec4e"/>
      <path id="Path_620" data-name="Path 620" d="M246.244,454.87l4.233,5.66v-9.3A40.2,40.2,0,0,1,246.244,454.87Z" transform="translate(-228.013 -342.058)" fill="#ffdb2d"/>
    </g>
    <g id="Group_524" data-name="Group 524" transform="translate(111.076 108.327)">
      <path id="Path_621" data-name="Path 621" d="M259.563,217.426,256,212.662v7.754A40.79,40.79,0,0,1,259.563,217.426Z" transform="translate(-256 -212.662)" fill="#ff9a00"/>
      <path id="Path_622" data-name="Path 622" d="M277.794,359.131c0-12.756-6.475-24.623-18.231-33.415a40.8,40.8,0,0,1-3.563-2.99v17.052c5.7,5.648,8.777,12.371,8.777,19.353s-3.081,13.7-8.777,19.353v9.3l3.563,4.764C271.319,383.753,277.794,371.886,277.794,359.131Z" transform="translate(-256 -274.97)" fill="#ff9a00"/>
    </g>
  </g>
</svg>
